<svg id="ICONS-64x" xmlns="http://www.w3.org/2000/svg" viewBox="0 0 64 64">
  <defs>
    <style>
      .cls-1 {
        fill: #556a8a;
      }

      .cls-2 {
        fill: #2bc7f4;
      }

      .cls-3 {
        fill: none;
        stroke: #556a8a;
        stroke-miterlimit: 10;
        stroke-width: 2px;
      }

      .cls-4 {
        fill: #fff;
      }

      .cls-5 {
        fill: #e5e5e5;
      }
    </style>
  </defs>
  <title>i_whats-new</title>
  <path class="cls-1" d="M6.63,41H10L9.94,23H6.63C4.42,23,2,27.36,2,32S4.42,41,6.63,41Z"/>
  <path class="cls-2" d="M4.58,32.05c0-5,1.74-9,3.94-9a14,14,0,0,1,1.76,0c1.91.67,2.25,4.46,2.27,8.93s.22,8.36-1.72,9c-.17.05-2,0-2.22,0C6.41,41,4.61,37,4.58,32.05Z"/>
  <path class="cls-3" d="M28.35,35.7h-2.7a7.65,7.65,0,1,0,0,15.3h2.7a7.65,7.65,0,1,0,0-15.3Z"/>
  <path class="cls-4" d="M49,32V32c0-8.74,1-15.81,3-19-3.7,1.91-12.29,4.88-22.83,7.61C24.21,21.91,10,24,10,24c-1.53,1.53-1.9,5.59-2,7.37,0,.27,0,.48,0,.63,0,1.13.24,6.24,2,8,0,0,14.21,2.09,19.17,3.39C39.71,46.12,48.3,49.09,52,51c-1.6-2.54-2.56-7.62-2.87-14.07C49.06,35.37,49,33.74,49,32Z"/>
  <path class="cls-5" d="M52,51c-3.7-1.91-12.29-4.88-22.83-7.61C24.21,42.09,10,40,10,40c-1.76-1.76-2-8.36-1.65-7.8,0,0,12,1.55,18.65,2.8s22,6,22,6C49,46.62,50.4,48.46,52,51Z"/>
  <path class="cls-3" d="M49,32v0c0-8,.83-14.61,2.5-18.08.15-.32-.38,0-.21-.3-.47.24.81-.56.19-.28a168.81,168.81,0,0,1-22.33,7.31C24.21,21.91,10.05,24,10,24c-1.76,1.76-2,6.87-2,8s.24,6.24,2,8c.05,0,14.21,2.09,19.17,3.39,10.54,2.73,17.5,5.11,21.2,7-.25-.39,1,.61.75.09C49.6,46.93,49,39.68,49,32Z"/>
  <path class="cls-2" d="M60.53,32c0,8.33-2.32,15.48-4.24,18.7-.68,1.15-1.45,1.8-2.25,1.8a2.59,2.59,0,0,1-2-1.36c-1.58-2.27-2.81-7.18-3.29-13.28-.15-1.86-.23-3.82-.23-5.86s.08-4,.23-5.9c.49-6.08,1.71-11,3.29-13.23a2.58,2.58,0,0,1,2-1.37c.8,0,1.57.64,2.25,1.81C58.21,16.55,60.53,23.71,60.53,32Z"/>
  <path class="cls-1" d="M56,32a6,6,0,0,1-6,6,6.09,6.09,0,0,1-1.22-.12c-.15-1.86-.23-3.82-.23-5.86s.08-4,.23-5.9A6.08,6.08,0,0,1,50,26,6,6,0,0,1,56,32Z"/>
  <path class="cls-3" d="M60.53,32c0,8.33-2.32,15.48-4.24,18.7-.68,1.15-1.45,1.8-2.25,1.8a2.57,2.57,0,0,1-2-1.36C50,48.2,48.55,40.76,48.55,32S50,15.84,52.07,12.89a2.59,2.59,0,0,1,2-1.37c.8,0,1.57.65,2.25,1.81C58.21,16.55,60.53,23.71,60.53,32Z"/>
</svg>
